<?xml version="1.0" encoding="UTF-8"?>
<svg xmlns="http://www.w3.org/2000/svg" xmlns:xlink="http://www.w3.org/1999/xlink" version="1.1" id="Layer_1" x="0px" y="0px" viewBox="0 0 24 24" style="enable-background:new 0 0 24 24;" xml:space="preserve">
<g>
	<path style="fill:#303C42;" d="M22.5,1h-21C1.224,1,1,1.224,1,1.5v21C1,22.776,1.224,23,1.5,23h21c0.276,0,0.5-0.224,0.5-0.5v-21   C23,1.224,22.776,1,22.5,1z"/>
	<rect x="2" y="2" style="fill:#F57C00;" width="20" height="20"/>
	<rect x="3" y="3" style="fill:#3E2723;" width="18" height="18"/>
	<path style="fill:#F57C00;" d="M7.342,16.974c0.265,0.087,0.545-0.054,0.632-0.316L8.86,14h3.28l0.886,2.658   C13.096,16.868,13.291,17,13.5,17c0.052,0,0.105-0.008,0.158-0.026c0.262-0.087,0.403-0.37,0.316-0.632l-3-9   c-0.136-0.408-0.813-0.408-0.948,0l-3,9C6.938,16.604,7.08,16.887,7.342,16.974z M10.5,9.081L11.806,13H9.194L10.5,9.081z"/>
	<path style="fill:#F57C00;" d="M16.5,17c0.276,0,0.5-0.224,0.5-0.5v-7C17,9.224,16.776,9,16.5,9S16,9.224,16,9.5v7   C16,16.776,16.224,17,16.5,17z"/>
	<circle style="fill:#F57C00;" cx="16.5" cy="7.5" r="0.5"/>
	
		<linearGradient id="SVGID_1_" gradientUnits="userSpaceOnUse" x1="-1.0996" y1="18.1084" x2="25.0996" y2="5.8916" gradientTransform="matrix(1 0 0 -1 0 24)">
		<stop offset="0" style="stop-color:#FFFFFF;stop-opacity:0.2"/>
		<stop offset="1" style="stop-color:#FFFFFF;stop-opacity:0"/>
	</linearGradient>
	<path style="fill:url(#SVGID_1_);" d="M22.5,1h-21C1.224,1,1,1.224,1,1.5v21C1,22.776,1.224,23,1.5,23h21   c0.276,0,0.5-0.224,0.5-0.5v-21C23,1.224,22.776,1,22.5,1z"/>
</g>

	<metadata>
		<rdf:RDF xmlns:rdf="http://www.w3.org/1999/02/22-rdf-syntax-ns#" xmlns:rdfs="http://www.w3.org/2000/01/rdf-schema#" xmlns:dc="http://purl.org/dc/elements/1.1/">
			<rdf:Description about="https://iconscout.com/legal#licenses" dc:title="logo; brand; brands; logos; adobe; illustrator" dc:description="logo; brand; brands; logos; adobe; illustrator" dc:publisher="Iconscout" dc:date="2017-03-22" dc:format="image/svg+xml" dc:language="en">
				<dc:creator>
					<rdf:Bag>
						<rdf:li>Alpár - Etele Méder</rdf:li>
					</rdf:Bag>
				</dc:creator>
			</rdf:Description>
		</rdf:RDF>
    </metadata></svg>
